<?xml version="1.0" standalone="no"?>
<!DOCTYPE svg PUBLIC "-//W3C//DTD SVG 1.1//EN"
"http://www.w3.org/Graphics/SVG/1.1/DTD/svg11.dtd">
<svg height="200" version="1.1" width="432.0" xmlns="http://www.w3.org/2000/svg"><text style="font-family:sans-serif;font-size:15px;text-anchor:end;alignment-baseline:hanging;transform:translate(29px, 90px);" x="0" y="0">1</text><text style="font-family:sans-serif;font-size:15px;text-anchor:end;alignment-baseline:hanging;transform:translate(29px, 50px);" x="0" y="0">5</text><text style="font-family:sans-serif;font-size:15px;text-anchor:end;alignment-baseline:hanging;transform:translate(29px, 0px);" x="0" y="0">10</text><text style="font-family:sans-serif;font-size:15px;text-anchor:middle;transform:translate(14px, 50px) rotate(-90deg)" x="0" y="0">units</text><rect fill="#B6B6F2" height="100.0" width="147.0" x="32" y="0.0" /><rect fill="#A5E5DB" height="100.0" width="162.0" x="182.0" y="0.0" /><rect fill="#F2CFB6" height="100.0" width="42.0" x="347.0" y="0.0" /><rect fill="#4B4CBF" height="100.0" width="12" x="32" y="0.0" /><text style="font-family:sans-serif;font-size:12px;text-anchor:end;transform:translate(44px, 108px) rotate(-45deg);" x="0" y="0">ceiling</text><rect fill="#4B4CBF" height="100.0" width="12" x="47.0" y="0.0" /><text style="font-family:sans-serif;font-size:12px;text-anchor:end;transform:translate(59px, 108px) rotate(-45deg);" x="0" y="0">sky</text><rect fill="#4B4CBF" height="40.0" width="12" x="62.0" y="60.0" /><text style="font-family:sans-serif;font-size:12px;text-anchor:end;transform:translate(74px, 108px) rotate(-45deg);" x="0" y="0">table</text><rect fill="#4B4CBF" height="30.0" width="12" x="77.0" y="70.0" /><text style="font-family:sans-serif;font-size:12px;text-anchor:end;transform:translate(89px, 108px) rotate(-45deg);" x="0" y="0">window</text><rect fill="#4B4CBF" height="20.0" width="12" x="92.0" y="80.0" /><text style="font-family:sans-serif;font-size:12px;text-anchor:end;transform:translate(104px, 108px) rotate(-45deg);" x="0" y="0">floor</text><rect fill="#4B4CBF" height="20.0" width="12" x="107.0" y="80.0" /><text style="font-family:sans-serif;font-size:12px;text-anchor:end;transform:translate(119px, 108px) rotate(-45deg);" x="0" y="0">person</text><rect fill="#4B4CBF" height="10.0" width="12" x="122.0" y="90.0" /><text style="font-family:sans-serif;font-size:12px;text-anchor:end;transform:translate(134px, 108px) rotate(-45deg);" x="0" y="0">tree</text><rect fill="#4B4CBF" height="10.0" width="12" x="137.0" y="90.0" /><text style="font-family:sans-serif;font-size:12px;text-anchor:end;transform:translate(149px, 108px) rotate(-45deg);" x="0" y="0">chair</text><rect fill="#4B4CBF" height="10.0" width="12" x="152.0" y="90.0" /><text style="font-family:sans-serif;font-size:12px;text-anchor:end;transform:translate(164px, 108px) rotate(-45deg);" x="0" y="0">plant</text><rect fill="#4B4CBF" height="10.0" width="12" x="167.0" y="90.0" /><text style="font-family:sans-serif;font-size:12px;text-anchor:end;transform:translate(179px, 108px) rotate(-45deg);" x="0" y="0">mountain</text><rect fill="#50BDAC" height="70.0" width="12" x="182.0" y="30.0" /><text style="font-family:sans-serif;font-size:12px;text-anchor:end;transform:translate(194px, 108px) rotate(-45deg);" x="0" y="0">table-t</text><rect fill="#50BDAC" height="40.0" width="12" x="197.0" y="60.0" /><text style="font-family:sans-serif;font-size:12px;text-anchor:end;transform:translate(209px, 108px) rotate(-45deg);" x="0" y="0">wall-t</text><rect fill="#50BDAC" height="40.0" width="12" x="212.0" y="60.0" /><text style="font-family:sans-serif;font-size:12px;text-anchor:end;transform:translate(224px, 108px) rotate(-45deg);" x="0" y="0">floor-b</text><rect fill="#50BDAC" height="40.0" width="12" x="227.0" y="60.0" /><text style="font-family:sans-serif;font-size:12px;text-anchor:end;transform:translate(239px, 108px) rotate(-45deg);" x="0" y="0">wall-b</text><rect fill="#50BDAC" height="30.0" width="12" x="242.0" y="70.0" /><text style="font-family:sans-serif;font-size:12px;text-anchor:end;transform:translate(254px, 108px) rotate(-45deg);" x="0" y="0">ceiling-t</text><rect fill="#50BDAC" height="30.0" width="12" x="257.0" y="70.0" /><text style="font-family:sans-serif;font-size:12px;text-anchor:end;transform:translate(269px, 108px) rotate(-45deg);" x="0" y="0">person-t</text><rect fill="#50BDAC" height="20.0" width="12" x="272.0" y="80.0" /><text style="font-family:sans-serif;font-size:12px;text-anchor:end;transform:translate(284px, 108px) rotate(-45deg);" x="0" y="0">head</text><rect fill="#50BDAC" height="10.0" width="12" x="287.0" y="90.0" /><text style="font-family:sans-serif;font-size:12px;text-anchor:end;transform:translate(299px, 108px) rotate(-45deg);" x="0" y="0">sky-r</text><rect fill="#50BDAC" height="10.0" width="12" x="302.0" y="90.0" /><text style="font-family:sans-serif;font-size:12px;text-anchor:end;transform:translate(314px, 108px) rotate(-45deg);" x="0" y="0">ceiling-l</text><rect fill="#50BDAC" height="10.0" width="12" x="317.0" y="90.0" /><text style="font-family:sans-serif;font-size:12px;text-anchor:end;transform:translate(329px, 108px) rotate(-45deg);" x="0" y="0">ceiling-b</text><rect fill="#50BDAC" height="10.0" width="12" x="332.0" y="90.0" /><text style="font-family:sans-serif;font-size:12px;text-anchor:end;transform:translate(344px, 108px) rotate(-45deg);" x="0" y="0">sky-t</text><rect fill="#F0883B" height="20.0" width="12" x="347.0" y="80.0" /><text style="font-family:sans-serif;font-size:12px;text-anchor:end;transform:translate(359px, 108px) rotate(-45deg);" x="0" y="0">glass</text><rect fill="#F0883B" height="20.0" width="12" x="362.0" y="80.0" /><text style="font-family:sans-serif;font-size:12px;text-anchor:end;transform:translate(374px, 108px) rotate(-45deg);" x="0" y="0">hair</text><rect fill="#F0883B" height="20.0" width="12" x="377.0" y="80.0" /><text style="font-family:sans-serif;font-size:12px;text-anchor:end;transform:translate(389px, 108px) rotate(-45deg);" x="0" y="0">wallpaper</text><text style="font-family:sans-serif;font-size:15px;text-anchor:end;transform:translate(179px, 3px) rotate(-90deg);" x="0" y="0">10 objects</text><text style="font-family:sans-serif;font-size:15px;text-anchor:end;transform:translate(344px, 3px) rotate(-90deg);" x="0" y="0">11 parts</text><text style="font-family:sans-serif;font-size:15px;text-anchor:end;transform:translate(389px, 3px) rotate(-90deg);" x="0" y="0">3 materials</text></svg>